HIERARCHY
ROOT mixamorig:Hips
{
	OFFSET 0.000000 35.069874 -0.029489
	CHANNELS 6 Xposition Yposition Zposition Zrotation Yrotation Xrotation 
	JOINT mixamorig:Spine
	{
		OFFSET -0.000000 6.876057 0.125662
		CHANNELS 3 Zrotation Yrotation Xrotation
		JOINT mixamorig:Spine1
		{
			OFFSET 0.000000 8.022058 0.146603
			CHANNELS 3 Zrotation Yrotation Xrotation
			JOINT mixamorig:Spine2
			{
				OFFSET 0.000000 9.168076 0.167547
				CHANNELS 3 Zrotation Yrotation Xrotation
				JOINT mixamorig:Neck
				{
					OFFSET 0.000000 10.314070 0.188489
					CHANNELS 3 Zrotation Yrotation Xrotation
					JOINT mixamorig:Head
					{
						OFFSET -0.000000 7.643749 -2.377445
						CHANNELS 3 Zrotation Yrotation Xrotation
						JOINT mixamorig:HeadTop_End
						{
							OFFSET 0.000000 43.788605 -13.619637
							CHANNELS 3 Zrotation Yrotation Xrotation
							End Site
							{
								OFFSET 0.000000 0.000000 0.000000
							}
						}
					}
				}
				JOINT mixamorig:LeftShoulder
				{
					OFFSET 4.392187 8.824999 0.174995
					CHANNELS 3 Zrotation Yrotation Xrotation
					JOINT mixamorig:LeftArm
					{
						OFFSET 8.774866 -2.970879 -0.026997
						CHANNELS 3 Zrotation Yrotation Xrotation
						JOINT mixamorig:LeftForeArm
						{
							OFFSET 8.450586 -0.797431 -0.648343
							CHANNELS 3 Zrotation Yrotation Xrotation
							JOINT mixamorig:LeftHand
							{
								OFFSET 18.458662 0.962311 0.193148
								CHANNELS 3 Zrotation Yrotation Xrotation
								JOINT mixamorig:LeftHandThumb1
								{
									OFFSET 2.379990 -1.333382 2.680594
									CHANNELS 3 Zrotation Yrotation Xrotation
									JOINT mixamorig:LeftHandThumb2
									{
										OFFSET 1.903984 -1.066746 2.144473
										CHANNELS 3 Zrotation Yrotation Xrotation
										JOINT mixamorig:LeftHandThumb3
										{
											OFFSET 0.966393 -1.489639 2.964555
											CHANNELS 3 Zrotation Yrotation Xrotation
											JOINT mixamorig:LeftHandThumb4
											{
												OFFSET 1.205181 -0.823021 1.625701
												CHANNELS 3 Zrotation Yrotation Xrotation
												End Site
												{
													OFFSET 0.000000 0.000000 0.000000
												}
											}
										}
									}
								}
								JOINT mixamorig:LeftHandIndex1
								{
									OFFSET 7.830624 -0.787468 2.563931
									CHANNELS 3 Zrotation Yrotation Xrotation
									JOINT mixamorig:LeftHandIndex2
									{
										OFFSET 3.312897 -0.052605 1.515312
										CHANNELS 3 Zrotation Yrotation Xrotation
										JOINT mixamorig:LeftHandIndex3
										{
											OFFSET 3.460667 -0.207008 1.581951
											CHANNELS 3 Zrotation Yrotation Xrotation
											JOINT mixamorig:LeftHandIndex4
											{
												OFFSET 2.183182 0.110458 0.999585
												CHANNELS 3 Zrotation Yrotation Xrotation
												End Site
												{
													OFFSET 0.000000 0.000000 0.000000
												}
											}
										}
									}
								}
								JOINT mixamorig:LeftHandMiddle1
								{
									OFFSET 8.556145 -0.261200 0.258753
									CHANNELS 3 Zrotation Yrotation Xrotation
									JOINT mixamorig:LeftHandMiddle2
									{
										OFFSET 3.828903 -0.489014 -0.111505
										CHANNELS 3 Zrotation Yrotation Xrotation
										JOINT mixamorig:LeftHandMiddle3
										{
											OFFSET 3.696209 -0.166595 -0.107596
											CHANNELS 3 Zrotation Yrotation Xrotation
											JOINT mixamorig:LeftHandMiddle4
											{
												OFFSET 2.259281 0.534500 -0.065675
												CHANNELS 3 Zrotation Yrotation Xrotation
												End Site
												{
													OFFSET 0.000000 0.000000 0.000000
												}
											}
										}
									}
								}
								JOINT mixamorig:LeftHandRing1
								{
									OFFSET 8.509293 -0.556679 -3.044941
									CHANNELS 3 Zrotation Yrotation Xrotation
									JOINT mixamorig:LeftHandRing2
									{
										OFFSET 2.995171 -0.303261 -0.843591
										CHANNELS 3 Zrotation Yrotation Xrotation
										JOINT mixamorig:LeftHandRing3
										{
											OFFSET 2.968273 -0.101997 -0.834287
											CHANNELS 3 Zrotation Yrotation Xrotation
											JOINT mixamorig:LeftHandRing4
											{
												OFFSET 1.521358 -0.461468 -0.418735
												CHANNELS 3 Zrotation Yrotation Xrotation
												End Site
												{
													OFFSET 0.000000 0.000000 0.000000
												}
											}
										}
									}
								}
							}
						}
					}
				}
				JOINT mixamorig:RightShoulder
				{
					OFFSET -4.392150 8.825028 0.141388
					CHANNELS 3 Zrotation Yrotation Xrotation
					JOINT mixamorig:RightArm
					{
						OFFSET -8.774886 -2.970952 -0.094209
						CHANNELS 3 Zrotation Yrotation Xrotation
						JOINT mixamorig:RightForeArm
						{
							OFFSET -8.450587 -0.797390 -0.330665
							CHANNELS 3 Zrotation Yrotation Xrotation
							JOINT mixamorig:RightHand
							{
								OFFSET -18.458664 0.962341 0.025779
								CHANNELS 3 Zrotation Yrotation Xrotation
								JOINT mixamorig:RightHandThumb1
								{
									OFFSET -2.390282 -1.240040 2.604684
									CHANNELS 3 Zrotation Yrotation Xrotation
									JOINT mixamorig:RightHandThumb2
									{
										OFFSET -1.912228 -0.992111 2.083740
										CHANNELS 3 Zrotation Yrotation Xrotation
										JOINT mixamorig:RightHandThumb3
										{
											OFFSET -0.876358 -1.555370 2.930126
											CHANNELS 3 Zrotation Yrotation Xrotation
											JOINT mixamorig:RightHandThumb4
											{
												OFFSET -1.227077 -0.755932 1.835223
												CHANNELS 3 Zrotation Yrotation Xrotation
												End Site
												{
													OFFSET 0.000000 0.000000 0.000000
												}
											}
										}
									}
								}
								JOINT mixamorig:RightHandIndex1
								{
									OFFSET -8.716801 -0.633743 3.098187
									CHANNELS 3 Zrotation Yrotation Xrotation
									JOINT mixamorig:RightHandIndex2
									{
										OFFSET -3.319706 -0.240585 1.198087
										CHANNELS 3 Zrotation Yrotation Xrotation
										JOINT mixamorig:RightHandIndex3
										{
											OFFSET -3.153255 -0.154724 1.138827
											CHANNELS 3 Zrotation Yrotation Xrotation
											JOINT mixamorig:RightHandIndex4
											{
												OFFSET -1.818684 -0.003197 0.655154
												CHANNELS 3 Zrotation Yrotation Xrotation
												End Site
												{
													OFFSET 0.000000 0.000000 0.000000
												}
											}
										}
									}
								}
								JOINT mixamorig:RightHandMiddle1
								{
									OFFSET -8.158691 -0.528496 0.196552
									CHANNELS 3 Zrotation Yrotation Xrotation
									JOINT mixamorig:RightHandMiddle2
									{
										OFFSET -3.890194 -0.261169 -0.136423
										CHANNELS 3 Zrotation Yrotation Xrotation
										JOINT mixamorig:RightHandMiddle3
										{
											OFFSET -3.903057 -0.179909 -0.137173
											CHANNELS 3 Zrotation Yrotation Xrotation
											JOINT mixamorig:RightHandMiddle4
											{
												OFFSET -2.366261 0.198380 -0.083987
												CHANNELS 3 Zrotation Yrotation Xrotation
												End Site
												{
													OFFSET 0.000000 0.000000 0.000000
												}
											}
										}
									}
								}
								JOINT mixamorig:RightHandRing1
								{
									OFFSET -7.616104 -0.395126 -2.681268
									CHANNELS 3 Zrotation Yrotation Xrotation
									JOINT mixamorig:RightHandRing2
									{
										OFFSET -3.235790 -0.462120 -1.101476
										CHANNELS 3 Zrotation Yrotation Xrotation
										JOINT mixamorig:RightHandRing3
										{
											OFFSET -3.179264 -0.138618 -1.084847
											CHANNELS 3 Zrotation Yrotation Xrotation
											JOINT mixamorig:RightHandRing4
											{
												OFFSET -1.963291 -0.101624 -0.668250
												CHANNELS 3 Zrotation Yrotation Xrotation
												End Site
												{
													OFFSET 0.000000 0.000000 0.000000
												}
											}
										}
									}
								}
							}
						}
					}
				}
			}
		}
	}
	JOINT mixamorig:LeftUpLeg
	{
		OFFSET 10.205382 -3.823522 0.155145
		CHANNELS 3 Zrotation Yrotation Xrotation
		JOINT mixamorig:LeftLeg
		{
			OFFSET 0.283732 -12.998343 0.567794
			CHANNELS 3 Zrotation Yrotation Xrotation
			JOINT mixamorig:LeftFoot
			{
				OFFSET -1.058953 -10.688870 -2.184322
				CHANNELS 3 Zrotation Yrotation Xrotation
				JOINT mixamorig:LeftToeBase
				{
					OFFSET 0.108145 -7.191069 7.560211
					CHANNELS 3 Zrotation Yrotation Xrotation
					JOINT mixamorig:LeftToe_End
					{
						OFFSET 0.070226 0.081726 4.490266
						CHANNELS 3 Zrotation Yrotation Xrotation
						End Site
						{
							OFFSET 0.000000 0.000000 0.000000
						}
					}
				}
			}
		}
	}
	JOINT mixamorig:RightUpLeg
	{
		OFFSET -10.205383 -3.823510 0.005508
		CHANNELS 3 Zrotation Yrotation Xrotation
		JOINT mixamorig:RightLeg
		{
			OFFSET -0.283728 -12.998341 0.610627
			CHANNELS 3 Zrotation Yrotation Xrotation
			JOINT mixamorig:RightFoot
			{
				OFFSET 1.058956 -10.688893 -1.945833
				CHANNELS 3 Zrotation Yrotation Xrotation
				JOINT mixamorig:RightToeBase
				{
					OFFSET -0.108151 -7.191039 7.372945
					CHANNELS 3 Zrotation Yrotation Xrotation
					JOINT mixamorig:RightToe_End
					{
						OFFSET -0.070229 0.081738 4.479398
						CHANNELS 3 Zrotation Yrotation Xrotation
						End Site
						{
							OFFSET 0.000000 0.000000 0.000000
						}
					}
				}
			}
		}
	}
}
MOTION
Frames: 4
Frame Time: 0.016667
0.776716 34.118141 -0.166835 -2.993284 -7.664439 -3.345200 2.304586 1.550682 3.357078 1.410435 0.720055 1.130354 1.402945 0.760914 1.105687 0.465815 0.325085 5.599092 -0.264334 1.351713 -7.555273 0.000000 0.000000 0.000000 -9.019972 -14.550186 2.253199 -65.527107 -4.833661 13.453736 4.412299 -0.473321 -6.282059 -1.034345 -2.692401 -35.102399 3.528165 16.252039 9.959884 41.666060 39.637119 24.592141 -5.911563 -9.311845 -14.870712 -0.000000 0.000001 -0.000001 -8.146728 22.186189 0.968134 -13.492739 2.985004 5.997238 -12.437554 1.704814 5.565368 0.000000 0.000000 -0.000003 -10.051435 -0.126676 -0.432398 -22.021786 2.377554 -0.891322 -34.214324 2.169435 -1.952492 -0.000003 -0.000001 0.000000 -16.746172 -12.931230 -1.553345 -23.710355 1.970140 -6.908209 -3.350757 3.087060 -0.503356 0.000001 0.000001 -0.000001 4.784854 17.219290 0.251495 62.203192 3.703659 22.032082 -0.003385 6.823112 0.001619 0.642152 -0.727140 -21.708446 -0.293955 -13.424918 9.726597 -47.008988 -43.944485 30.159464 6.007052 6.313769 -12.946073 -0.000001 -0.000002 -0.000001 6.141002 -17.312040 1.566421 17.406636 -2.482674 6.089323 9.941288 -0.969713 3.537132 -0.000003 -0.000003 -0.000002 14.788612 0.776475 -0.455194 18.588379 -1.843048 -0.847287 25.820437 -1.793024 -1.377537 -0.000004 -0.000003 0.000000 15.616810 16.264226 -2.384694 24.948866 -1.135936 -8.564161 16.541228 -1.804683 -5.777032 -0.000001 0.000001 -0.000000 8.564946 17.507126 -9.117091 4.607148 0.787417 15.293768 -8.117449 0.781877 -0.933533 0.000017 -0.000018 -4.932927 -0.000000 -0.000001 0.000001 2.524708 -10.289402 3.279410 -4.089295 -9.339182 5.115019 3.782619 -1.327713 -4.023494 0.000009 -0.000015 -7.273957 0.000000 0.000000 0.000001 
0.730818 34.067638 -0.148365 -2.646462 -7.507882 -3.338219 2.081766 1.571124 3.338957 1.350877 0.718388 1.126646 1.343518 0.758576 1.102315 0.454203 0.349115 5.489380 -0.268723 1.406644 -7.608382 0.000000 0.000000 0.000000 -9.104325 -14.644634 2.248850 -65.266159 -4.741375 13.102748 4.364066 -0.619318 -6.214240 -1.015826 -2.752957 -34.173454 3.567673 16.105940 9.954158 40.887834 39.353682 24.053184 -5.722926 -9.312898 -15.059613 -0.000001 0.000001 -0.000000 -7.800899 22.143714 1.020885 -13.964294 3.105470 6.196248 -13.370006 1.936761 5.964065 0.000002 0.000002 0.000000 -10.457273 -0.063423 -0.444656 -22.921473 2.493700 -0.949776 -34.324600 2.181253 -1.963557 -0.000001 -0.000001 0.000001 -17.738924 -12.838256 -1.608329 -24.226526 1.992523 -7.066296 -3.431399 3.098986 -0.525999 -0.000002 0.000001 -0.000000 4.802632 17.152222 0.257559 62.074913 3.667394 21.748087 -0.003516 6.775722 0.001786 0.610765 -0.703288 -20.882582 -0.293964 -13.424849 9.726590 -47.008656 -43.944353 30.159166 6.007000 6.313733 -12.946108 -0.000001 -0.000001 0.000004 6.764696 -17.388566 1.594454 18.401181 -2.686206 6.413797 10.975362 -1.134201 3.893851 0.000001 -0.000001 -0.000002 15.370165 0.713250 -0.477020 19.635313 -1.945345 -0.913169 26.997137 -1.896511 -1.468193 0.000001 0.000001 -0.000001 16.150378 16.202796 -2.406059 25.973827 -1.135372 -8.923361 17.665230 -1.858095 -6.182565 -0.000001 -0.000001 -0.000002 8.229532 17.495174 -9.375794 4.608677 0.692398 15.679151 -8.167711 0.711177 -1.128765 0.000012 -0.000019 -4.912781 0.000000 -0.000001 0.000000 2.253239 -10.193097 1.707336 -4.632411 -9.236792 8.365940 4.008888 -1.428174 -5.642684 0.000014 -0.000015 -7.364562 0.000000 0.000000 0.000000 
0.684200 34.024452 -0.127644 -2.303642 -7.341177 -3.342788 1.872113 1.585917 3.326226 1.288917 0.716053 1.123001 1.281681 0.755479 1.099025 0.439566 0.378481 5.420742 -0.286745 1.482683 -7.701788 0.000000 0.000000 0.000000 -9.184276 -14.730081 2.248931 -64.987939 -4.574504 12.735897 4.318322 -0.920292 -6.172222 -1.046884 -2.730770 -33.183398 3.605654 15.965644 9.948431 40.094799 39.021412 23.482437 -5.533775 -9.357219 -15.260922 0.000000 0.000003 0.000002 -7.362604 22.081381 1.069573 -14.382079 3.213646 6.371863 -14.251463 2.162293 6.338050 0.000001 0.000002 0.000000 -10.803863 -0.008476 -0.455313 -23.751365 2.600001 -1.005302 -34.403904 2.189740 -1.971517 -0.000001 0.000001 -0.000000 -18.698755 -12.749267 -1.663793 -24.684171 2.011178 -7.206599 -3.482595 3.106554 -0.540386 -0.000001 0.000001 -0.000001 4.846930 17.092988 0.299081 61.940648 3.610785 21.474311 -0.003559 6.753059 0.001880 0.540768 -0.651454 -20.043485 -0.293976 -13.424917 9.726620 -47.009185 -43.944625 30.159711 6.007054 6.313698 -12.946056 0.000004 0.000002 0.000002 7.476213 -17.474693 1.619459 19.443324 -2.905725 6.750392 12.016316 -1.306407 4.250244 -0.000004 0.000002 0.000002 15.967588 0.649037 -0.500120 20.697500 -2.047875 -0.981871 28.277618 -2.006975 -1.569215 0.000003 0.000002 -0.000003 16.642171 16.141616 -2.425479 27.048922 -1.127889 -9.300050 18.891011 -1.907244 -6.625781 0.000002 -0.000002 -0.000001 7.910697 17.507548 -9.550035 4.598671 0.605634 15.932930 -8.211317 0.609535 -1.258157 0.000013 -0.000027 -4.918850 0.000000 -0.000002 0.000000 1.976465 -10.127661 0.624767 -5.010382 -9.090993 10.667116 4.237734 -1.652742 -6.824318 0.000008 0.000006 -7.430451 0.000000 0.000000 0.000001 
0.636874 33.984024 -0.105632 -1.960805 -7.169733 -3.354530 1.668513 1.597186 3.316279 1.225562 0.713274 1.119051 1.218446 0.751899 1.095447 0.422238 0.411436 5.381814 -0.313180 1.574094 -7.821923 0.000000 0.000000 0.000000 -9.258549 -14.811372 2.252284 -64.714633 -4.422351 12.337930 4.271928 -1.194253 -6.135580 -1.098852 -2.725792 -32.139272 3.642599 15.829283 9.942653 39.296446 38.652604 22.895841 -5.344194 -9.430525 -15.471064 0.000001 -0.000003 -0.000001 -6.861941 22.005607 1.115103 -14.763455 3.313571 6.531627 -15.098172 2.384671 6.694588 0.000002 0.000003 0.000002 -11.110395 0.040860 -0.464881 -24.534123 2.699483 -1.059081 -34.462225 2.195991 -1.977382 0.000002 0.000000 0.000000 -19.636199 -12.663226 -1.720132 -25.102266 2.027230 -7.334903 -3.513829 3.111162 -0.549170 0.000001 0.000003 0.000001 4.906172 17.037111 0.354925 61.799925 3.540183 21.209810 -0.003544 6.746584 0.001941 0.440570 -0.585766 -19.183571 -0.293934 -13.425015 9.726613 -47.009955 -43.944969 30.160435 6.007120 6.313651 -12.946011 0.000002 0.000002 -0.000001 8.244440 -17.566857 1.641864 20.515615 -3.138183 7.092887 13.061200 -1.485934 4.605159 0.000002 0.000002 -0.000002 16.575162 0.584303 -0.524325 21.769427 -2.150029 -1.053121 29.625160 -2.120721 -1.678145 0.000001 0.000001 -0.000001 17.106952 16.080659 -2.443745 28.156190 -1.112771 -9.687844 20.182563 -1.948760 -7.093657 -0.000001 -0.000004 0.000001 7.599355 17.528863 -9.687968 4.584660 0.526524 16.137751 -8.253610 0.492660 -1.360129 0.000015 -0.000025 -4.938945 0.000000 0.000002 0.000000 1.699779 -10.080281 -0.248857 -5.314278 -8.934813 12.571645 4.449255 -1.924509 -7.835907 0.000010 -0.000016 -7.479918 0.000000 0.000001 0.000001 
